<svg width="800" height="1200" viewBox="0 0 800 1200" fill="none" xmlns="http://www.w3.org/2000/svg">
<rect width="800" height="1200" fill="#FAFAFA"/>
<g clip-path="url(#clip0_2_2)">
<path d="M654 438H147V608H654V438Z" fill="#FAFAFA"/>
<path d="M268.82 598.119H185.025V610.102H268.82V598.119Z" fill="#0F62FE"/>
<path d="M268.82 575.245H185.025V587.227H268.82V575.245Z" fill="#0F62FE"/>
<path d="M244.881 552.37H208.969V564.352H244.881V552.37Z" fill="#0F62FE"/>
<path d="M244.881 529.496H208.969V541.477H244.881V529.496Z" fill="#0F62FE"/>
<path d="M244.881 506.624H208.969V518.605H244.881V506.624Z" fill="#0F62FE"/>
<path d="M244.881 483.749H208.969V495.731H244.881V483.749Z" fill="#0F62FE"/>
<path d="M268.82 460.875H185.025V472.856H268.82V460.875Z" fill="#0F62FE"/>
<path d="M268.82 438H185.025V449.982H268.82V438Z" fill="#0F62FE"/>
<path d="M280.79 587.227H408.516C410.683 583.482 412.303 579.448 413.332 575.245H280.79V587.227Z" fill="#0F62FE"/>
<path d="M398.519 529.496H304.734V541.477H408.505C405.884 536.943 402.505 532.89 398.519 529.496Z" fill="#0F62FE"/>
<path d="M304.734 506.624V518.606H398.519C402.505 515.211 405.884 511.159 408.505 506.624L304.734 506.624Z" fill="#0F62FE"/>
<path d="M408.516 460.875H280.79V472.856H413.332C412.303 468.653 410.683 464.618 408.516 460.875Z" fill="#0F62FE"/>
<path d="M368.939 438H280.79V449.982H399.772C391.358 442.261 380.354 437.985 368.939 438Z" fill="#0F62FE"/>
<path d="M340.647 483.749H304.734V495.731H340.647V483.749Z" fill="#0F62FE"/>
<path d="M374.381 495.731H413.046C414.105 491.825 414.643 487.796 414.645 483.749H374.381V495.731Z" fill="#0F62FE"/>
<path d="M340.647 552.37H304.734V564.352H340.647V552.37Z" fill="#0F62FE"/>
<path d="M374.381 552.37V564.352H414.645C414.643 560.305 414.105 556.276 413.046 552.37H374.381Z" fill="#0F62FE"/>
<path d="M280.79 609.983L368.939 610.101C380.357 610.133 391.367 605.854 399.773 598.119H280.791L280.79 609.983Z" fill="#0F62FE"/>
<path d="M520.185 610.101L524.365 598.119H516.043L520.185 610.101Z" fill="#0F62FE"/>
<path d="M512.225 587.227H528.188L532.391 575.245H508.022L512.225 587.227Z" fill="#0F62FE"/>
<path d="M504.199 564.352H536.209L540.412 552.37H499.996L504.199 564.352Z" fill="#0F62FE"/>
<path d="M496.178 541.477H544.234L548.435 529.496H491.975L496.178 541.477Z" fill="#0F62FE"/>
<path d="M448.384 495.731H513.056L508.894 483.749H448.384V495.731Z" fill="#0F62FE"/>
<path d="M535.304 472.856H615.972V460.875H539.466L535.304 472.856Z" fill="#0F62FE"/>
<path d="M547.416 438L543.251 449.982H615.975V438H547.416Z" fill="#0F62FE"/>
<path d="M484.292 598.119H424.438V610.102H484.292V598.119Z" fill="#0F62FE"/>
<path d="M484.292 575.245H424.438V587.227H484.292V575.245Z" fill="#0F62FE"/>
<path d="M484.294 552.37H448.384V564.352H484.294V552.37Z" fill="#0F62FE"/>
<path d="M484.294 529.496H448.384V541.477H484.294V529.496Z" fill="#0F62FE"/>
<path d="M592.029 483.749H531.516L527.354 495.731H592.029V483.749Z" fill="#0F62FE"/>
<path d="M556.121 518.605H592.032V506.624H556.121H523.572L520.208 516.309L516.841 506.624H484.294H448.384V518.605H484.294V507.594L488.158 518.605H552.258L556.121 507.595V518.605Z" fill="#0F62FE"/>
<path d="M592.032 529.496H556.121V541.477H592.032V529.496Z" fill="#0F62FE"/>
<path d="M592.032 552.37H556.121V564.352H592.032V552.37Z" fill="#0F62FE"/>
<path d="M615.975 575.245H556.121V587.227H615.975V575.245Z" fill="#0F62FE"/>
<path d="M615.975 598.119H556.121V610.102H615.975V598.119Z" fill="#0F62FE"/>
<path d="M505.109 472.856L500.947 460.875H424.438V472.856H505.109Z" fill="#0F62FE"/>
<path d="M497.162 449.982L493 438H424.438V449.982H497.162Z" fill="#0F62FE"/>
</g>
<path d="M200.129 678.93V731H184.145V665.488H199.221L200.129 678.93ZM197.768 695.883H192.863C192.863 691.322 193.408 687.124 194.498 683.289C195.628 679.454 197.283 676.124 199.463 673.299C201.643 670.433 204.327 668.213 207.516 666.639C210.745 665.064 214.479 664.277 218.717 664.277C221.663 664.277 224.368 664.721 226.83 665.609C229.292 666.457 231.411 667.809 233.188 669.666C235.004 671.482 236.396 673.864 237.365 676.811C238.334 679.717 238.818 683.208 238.818 687.285V731H222.834V688.92C222.834 685.852 222.39 683.451 221.502 681.715C220.654 679.979 219.423 678.768 217.809 678.082C216.194 677.355 214.257 676.992 211.996 676.992C209.493 676.992 207.334 677.497 205.518 678.506C203.742 679.475 202.268 680.827 201.098 682.562C199.967 684.298 199.12 686.296 198.555 688.557C198.03 690.817 197.768 693.259 197.768 695.883ZM237.607 692.916L231.008 694.127C231.048 690.01 231.613 686.155 232.703 682.562C233.793 678.93 235.387 675.761 237.486 673.057C239.626 670.312 242.27 668.173 245.418 666.639C248.607 665.064 252.28 664.277 256.438 664.277C259.667 664.277 262.573 664.742 265.156 665.67C267.78 666.558 270.02 667.991 271.877 669.969C273.734 671.906 275.146 674.429 276.115 677.537C277.124 680.645 277.629 684.439 277.629 688.92V731H261.523V688.859C261.523 685.671 261.079 683.229 260.191 681.533C259.344 679.838 258.113 678.667 256.498 678.021C254.883 677.335 252.986 676.992 250.807 676.992C248.587 676.992 246.649 677.416 244.994 678.264C243.38 679.071 242.007 680.201 240.877 681.654C239.787 683.107 238.96 684.803 238.395 686.74C237.87 688.637 237.607 690.696 237.607 692.916ZM328.064 717.074V686.861C328.064 684.641 327.681 682.724 326.914 681.109C326.147 679.495 324.977 678.243 323.402 677.355C321.828 676.467 319.83 676.023 317.408 676.023C315.269 676.023 313.392 676.387 311.777 677.113C310.203 677.84 308.992 678.869 308.145 680.201C307.297 681.493 306.873 682.986 306.873 684.682H290.828C290.828 681.977 291.474 679.414 292.766 676.992C294.057 674.53 295.894 672.35 298.275 670.453C300.697 668.516 303.583 667.002 306.934 665.912C310.324 664.822 314.118 664.277 318.316 664.277C323.281 664.277 327.701 665.125 331.576 666.82C335.492 668.475 338.559 670.978 340.779 674.328C343.04 677.678 344.17 681.896 344.17 686.982V715.561C344.17 718.83 344.372 721.635 344.775 723.977C345.219 726.277 345.865 728.275 346.713 729.971V731H330.426C329.659 729.345 329.074 727.246 328.67 724.703C328.266 722.12 328.064 719.577 328.064 717.074ZM330.305 691.1L330.426 700.605H320.314C317.812 700.605 315.612 700.868 313.715 701.393C311.818 701.877 310.264 702.604 309.053 703.572C307.842 704.501 306.934 705.631 306.328 706.963C305.723 708.255 305.42 709.728 305.42 711.383C305.42 712.997 305.783 714.451 306.51 715.742C307.277 717.034 308.367 718.063 309.779 718.83C311.232 719.557 312.928 719.92 314.865 719.92C317.691 719.92 320.153 719.355 322.252 718.225C324.351 717.054 325.986 715.641 327.156 713.986C328.327 712.331 328.952 710.757 329.033 709.264L333.635 716.166C333.07 717.821 332.222 719.577 331.092 721.434C329.962 723.29 328.508 725.026 326.732 726.641C324.956 728.255 322.817 729.587 320.314 730.637C317.812 731.686 314.906 732.211 311.596 732.211C307.357 732.211 303.563 731.363 300.213 729.668C296.863 727.973 294.219 725.652 292.281 722.705C290.344 719.758 289.375 716.408 289.375 712.654C289.375 709.183 290.021 706.115 291.312 703.451C292.604 700.787 294.521 698.547 297.064 696.73C299.607 694.874 302.756 693.481 306.51 692.553C310.304 691.584 314.643 691.1 319.527 691.1H330.305ZM371.113 665.488L382.799 686.316L394.666 665.488H412.043L392.789 697.578L412.83 731H395.453L382.92 709.143L370.326 731H352.949L372.93 697.578L353.797 665.488H371.113ZM438.26 665.488V731H422.215V665.488H438.26ZM421.125 648.354C421.125 645.972 421.932 643.994 423.547 642.42C425.202 640.846 427.422 640.059 430.207 640.059C432.992 640.059 435.192 640.846 436.807 642.42C438.462 643.994 439.289 645.972 439.289 648.354C439.289 650.695 438.462 652.652 436.807 654.227C435.192 655.801 432.992 656.588 430.207 656.588C427.422 656.588 425.202 655.801 423.547 654.227C421.932 652.652 421.125 650.695 421.125 648.354ZM469.441 678.93V731H453.457V665.488H468.533L469.441 678.93ZM467.08 695.883H462.176C462.176 691.322 462.721 687.124 463.811 683.289C464.941 679.454 466.596 676.124 468.775 673.299C470.955 670.433 473.639 668.213 476.828 666.639C480.057 665.064 483.791 664.277 488.029 664.277C490.976 664.277 493.68 664.721 496.143 665.609C498.605 666.457 500.724 667.809 502.5 669.666C504.316 671.482 505.709 673.864 506.678 676.811C507.646 679.717 508.131 683.208 508.131 687.285V731H492.146V688.92C492.146 685.852 491.702 683.451 490.814 681.715C489.967 679.979 488.736 678.768 487.121 678.082C485.507 677.355 483.569 676.992 481.309 676.992C478.806 676.992 476.646 677.497 474.83 678.506C473.054 679.475 471.581 680.827 470.41 682.562C469.28 684.298 468.432 686.296 467.867 688.557C467.342 690.817 467.08 693.259 467.08 695.883ZM506.92 692.916L500.32 694.127C500.361 690.01 500.926 686.155 502.016 682.562C503.105 678.93 504.7 675.761 506.799 673.057C508.938 670.312 511.582 668.173 514.73 666.639C517.919 665.064 521.592 664.277 525.75 664.277C528.979 664.277 531.885 664.742 534.469 665.67C537.092 666.558 539.333 667.991 541.189 669.969C543.046 671.906 544.459 674.429 545.428 677.537C546.437 680.645 546.941 684.439 546.941 688.92V731H530.836V688.859C530.836 685.671 530.392 683.229 529.504 681.533C528.656 679.838 527.425 678.667 525.811 678.021C524.196 677.335 522.299 676.992 520.119 676.992C517.899 676.992 515.962 677.416 514.307 678.264C512.692 679.071 511.32 680.201 510.189 681.654C509.1 683.107 508.272 684.803 507.707 686.74C507.182 688.637 506.92 690.696 506.92 692.916ZM558.445 698.91V697.639C558.445 692.835 559.132 688.415 560.504 684.379C561.876 680.302 563.874 676.77 566.498 673.783C569.122 670.796 572.331 668.475 576.125 666.82C579.919 665.125 584.238 664.277 589.082 664.277C594.007 664.277 598.366 665.125 602.16 666.82C605.995 668.475 609.224 670.796 611.848 673.783C614.471 676.77 616.469 680.302 617.842 684.379C619.214 688.415 619.9 692.835 619.9 697.639V698.91C619.9 703.673 619.214 708.093 617.842 712.17C616.469 716.206 614.471 719.738 611.848 722.766C609.224 725.753 606.015 728.074 602.221 729.729C598.426 731.383 594.087 732.211 589.203 732.211C584.359 732.211 580.02 731.383 576.186 729.729C572.351 728.074 569.122 725.753 566.498 722.766C563.874 719.738 561.876 716.206 560.504 712.17C559.132 708.093 558.445 703.673 558.445 698.91ZM574.43 697.639V698.91C574.43 701.776 574.712 704.46 575.277 706.963C575.842 709.465 576.71 711.665 577.881 713.562C579.051 715.46 580.565 716.953 582.422 718.043C584.319 719.092 586.579 719.617 589.203 719.617C591.786 719.617 594.007 719.092 595.863 718.043C597.72 716.953 599.234 715.46 600.404 713.562C601.615 711.665 602.503 709.465 603.068 706.963C603.633 704.46 603.916 701.776 603.916 698.91V697.639C603.916 694.813 603.633 692.169 603.068 689.707C602.503 687.204 601.615 685.005 600.404 683.107C599.234 681.17 597.7 679.656 595.803 678.566C593.946 677.436 591.706 676.871 589.082 676.871C586.499 676.871 584.279 677.436 582.422 678.566C580.565 679.656 579.051 681.17 577.881 683.107C576.71 685.005 575.842 687.204 575.277 689.707C574.712 692.169 574.43 694.813 574.43 697.639Z" fill="black"/>
<defs>
<clipPath id="clip0_2_2">
<rect width="507" height="170" fill="white" transform="translate(147 438)"/>
</clipPath>
</defs>
</svg>
