<svg width="200" height="67" viewBox="0 0 200 67" fill="none" xmlns="http://www.w3.org/2000/svg">
<g clip-path="url(#clip0_25_208)">
<rect width="200" height="67" fill="white"/>
<path fill-rule="evenodd" clip-rule="evenodd" d="M49.0705 24.0613C53.1393 24.0613 55.6757 25.8368 55.6757 28.6988C55.6757 30.6863 54.4603 32.2498 52.4788 32.7798C54.883 33.2303 56.3362 35.0323 56.3362 37.4704C56.3362 40.6504 53.6413 42.6114 49.3611 42.6114H40.563V24.0613H49.0705ZM48.8591 31.5343C50.4444 31.5343 51.3955 30.7658 51.3955 29.4673C51.3955 28.1953 50.4444 27.4533 48.8591 27.4798H44.7375V31.5343H48.8591ZM48.8591 39.1929C50.8142 39.1929 52.0296 38.3714 52.0296 36.9404C52.0296 35.5888 50.8142 34.7673 48.8591 34.7938H44.7375V39.1929H48.8591ZM79.8685 42.6114H75.1391L72.2064 37.3114H67.9527V42.6114H63.7782V24.0613H71.8101C76.6451 24.0613 79.3929 26.3933 79.3929 30.5008C79.3929 33.3628 78.1775 35.4298 75.9318 36.4899L79.8685 42.6114ZM67.9525 27.5328V33.8133H71.8101C74.1087 33.8133 75.4298 32.7533 75.4298 30.6333C75.4298 28.5663 74.1087 27.5328 71.8101 27.5328H67.9525ZM100.97 42.6114L99.5165 39.0074H90.9562L89.5031 42.6114H85.1965L93.2284 24.0613H97.535L105.435 42.6114H100.97ZM92.3303 35.6418H98.1693L95.263 28.4339L92.3303 35.6418ZM108.332 24.0613L115.598 42.6114H119.905L127.25 24.0613H122.943L117.87 38.0534L112.824 24.0613H108.332ZM145.947 42.6114L144.494 39.0074H135.933L134.48 42.6114H130.174L138.206 24.0613H142.512L150.412 42.6114H145.947ZM137.307 35.6418H143.146L140.24 28.4339L137.307 35.6418ZM164.591 24.0613C170.325 24.0613 174.315 27.8508 174.315 33.3363C174.315 38.7954 170.272 42.6114 164.433 42.6114H156.744V24.0613H164.591ZM164.697 39.0869C167.788 39.0869 170.06 36.7549 170.06 33.3629C170.06 29.9444 167.682 27.5859 164.512 27.5859H160.919V39.0869H164.697ZM190.079 23.9288C195.733 23.9288 200.013 27.9569 200.013 33.3364C200.013 38.6894 195.733 42.7969 190.079 42.7969C184.425 42.7969 180.145 38.7159 180.145 33.3364C180.145 27.9304 184.425 23.9288 190.079 23.9288ZM190.132 27.5859C187.014 27.5859 184.425 30.0769 184.425 33.3364C184.425 36.5959 187.041 39.1399 190.132 39.1399C193.223 39.1399 195.733 36.5959 195.733 33.3364C195.733 30.0769 193.223 27.5859 190.132 27.5859Z" fill="black"/>
<path d="M23.4846 22V25.9749C23.4846 26.4166 23.4846 26.711 23.3379 27.1527C22.8975 28.7721 21.283 29.9499 19.6684 29.9499H3.96305C2.2017 29.9499 0.733899 28.7721 0.29357 27.1527C1.5748e-07 26.711 0 26.2694 0 25.9749V22H3.96305V24.3555C3.96305 25.2388 4.69693 25.9749 5.5776 25.9749H18.0539C18.9344 25.9749 19.6684 25.2388 19.6684 24.3555V22H23.4846Z" fill="black"/>
<path d="M17.0263 33.7783L12.7697 41.581H11.7423H10.7149L6.45828 33.7783H0L2.2017 37.7533H4.10982L8.36642 45.5558H11.7423H15.1182L19.3748 37.7533H21.283L23.4846 33.7783H17.0263Z" fill="black"/>
</g>
<defs>
<clipPath id="clip0_25_208">
<rect width="200" height="67" fill="white"/>
</clipPath>
</defs>
</svg>
