<svg width="200" height="67" viewBox="0 0 200 67" fill="none" xmlns="http://www.w3.org/2000/svg">
<g clip-path="url(#clip0_20_7)">
<rect width="200" height="67" fill="white"/>
<path d="M48.0554 63.1058H15V67.8283H48.0554V63.1058Z" fill="black"/>
<path d="M48.0554 54.0906H15V58.8128H48.0554V54.0906Z" fill="black"/>
<path d="M38.6119 45.0754H24.4453V49.7977H38.6119V45.0754Z" fill="black"/>
<path d="M38.6119 36.0601H24.4453V40.7823H38.6119V36.0601Z" fill="black"/>
<path d="M38.6119 27.0458H24.4453V31.768H38.6119V27.0458Z" fill="black"/>
<path d="M38.6119 18.0305H24.4453V22.7527H38.6119V18.0305Z" fill="black"/>
<path d="M48.0554 9.01526H15V13.7373H48.0554V9.01526Z" fill="black"/>
<path d="M48.0554 0H15V4.7222H48.0554V0Z" fill="black"/>
<path d="M52.7773 58.8128H103.162C104.017 57.3372 104.656 55.7471 105.062 54.0906H52.7773V58.8128Z" fill="black"/>
<path d="M99.2186 36.0601H62.2227V40.7822H103.158C102.124 38.995 100.791 37.3979 99.2186 36.0601Z" fill="black"/>
<path d="M62.2227 27.0458V31.7682H99.2187C100.791 30.4303 102.124 28.8332 103.158 27.0461L62.2227 27.0458Z" fill="black"/>
<path d="M103.162 9.01526H52.7773V13.7372H105.062C104.656 12.0808 104.017 10.4908 103.162 9.01526Z" fill="black"/>
<path d="M87.5498 1.64089e-05H52.7773V4.7223H99.713C96.3938 1.67931 92.0528 -0.00606653 87.5498 1.64089e-05V1.64089e-05Z" fill="black"/>
<path d="M76.3893 18.0305H62.2227V22.7527H76.3893V18.0305Z" fill="black"/>
<path d="M89.6965 22.7527H104.949C105.367 21.2135 105.579 19.6256 105.58 18.0305H89.6965V22.7527Z" fill="black"/>
<path d="M76.3893 45.0754H62.2227V49.7977H76.3893V45.0754Z" fill="black"/>
<path d="M89.6965 45.0754V49.7977H105.58C105.579 48.2026 105.367 46.6147 104.949 45.0754H89.6965Z" fill="black"/>
<path d="M52.7773 67.7814L87.5498 67.828C92.054 67.8405 96.3973 66.1543 99.7132 63.1058H52.7775L52.7773 67.7814Z" fill="black"/>
<path d="M147.213 67.8281L148.862 63.1058H145.579L147.213 67.8281Z" fill="black"/>
<path d="M144.073 58.8128H150.37L152.028 54.0906H142.415L144.073 58.8128Z" fill="black"/>
<path d="M140.907 49.7977H153.534L155.192 45.0754H139.249L140.907 49.7977Z" fill="black"/>
<path d="M137.743 40.7823H156.7L158.357 36.0601H136.085L137.743 40.7823Z" fill="black"/>
<path d="M118.889 22.7528H144.401L142.759 18.0305H118.889V22.7528Z" fill="black"/>
<path d="M153.177 13.7375H184.999V9.01526H154.819L153.177 13.7375Z" fill="black"/>
<path d="M157.955 0L156.312 4.72225H185V0H157.955Z" fill="black"/>
<path d="M133.054 63.1058H109.443V67.8283H133.054V63.1058Z" fill="black"/>
<path d="M133.054 54.0906H109.443V58.8128H133.054V54.0906Z" fill="black"/>
<path d="M133.055 45.0754H118.889V49.7977H133.055V45.0754Z" fill="black"/>
<path d="M133.055 36.0601H118.889V40.7823H133.055V36.0601Z" fill="black"/>
<path d="M175.554 18.0305H151.683L150.041 22.7528H175.554V18.0305Z" fill="black"/>
<path d="M161.389 31.768H175.555V27.0458H161.389H148.549L147.222 30.8628L145.894 27.0458H133.055H118.889V31.768H133.055V27.4283L134.579 31.768H159.865L161.389 27.4288V31.768Z" fill="black"/>
<path d="M175.555 36.0601H161.389V40.7823H175.555V36.0601Z" fill="black"/>
<path d="M175.555 45.0754H161.389V49.7977H175.555V45.0754Z" fill="black"/>
<path d="M185 54.0906H161.389V58.8128H185V54.0906Z" fill="black"/>
<path d="M185 63.1058H161.389V67.8283H185V63.1058Z" fill="black"/>
<path d="M141.266 13.7375L139.624 9.01526H109.443V13.7375H141.266Z" fill="black"/>
<path d="M138.131 4.72225L136.489 0H109.443V4.72225H138.131Z" fill="black"/>
</g>
<defs>
<clipPath id="clip0_20_7">
<rect width="200" height="67" fill="white"/>
</clipPath>
</defs>
</svg>
