<svg width="200" height="67" viewBox="0 0 200 67" fill="none" xmlns="http://www.w3.org/2000/svg">
<rect width="200" height="67" fill="white"/>
<path fill-rule="evenodd" clip-rule="evenodd" d="M82.2112 47.843H91.5913L72.8423 6.05029H69.3567L51.0518 47.843H56.5022L61.8194 34.8629H76.894L82.2112 47.843ZM63.3402 31.0375L69.3123 16.4542L75.2844 31.0375H63.3402Z" fill="#7B003A"/>
<path fill-rule="evenodd" clip-rule="evenodd" d="M151.324 47.843H160.693L141.944 6.05029H138.469L120.164 47.843H125.626L130.943 34.8629H146.018L151.324 47.843ZM132.453 31.0375L138.425 16.4542L144.497 31.0375H132.453Z" fill="#7B003A"/>
<path fill-rule="evenodd" clip-rule="evenodd" d="M90.1816 6.05029H121.941V11.1141H110.607V47.843H101.593V11.1141H90.1816V6.05029Z" fill="#7B003A"/>
<path fill-rule="evenodd" clip-rule="evenodd" d="M47.2332 27.4884C47.2332 15.0723 36.6543 5 23.6111 5C10.5678 5 0 15.0723 0 27.4884C0 39.9046 10.5678 49.988 23.6111 49.988C24.7702 49.9782 25.9274 49.8896 27.0744 49.7226L39.6293 61L46.2896 55.6709L33.0244 48.1084C37.1752 46.4571 40.7409 43.6164 43.2702 39.9458C45.7995 36.2753 47.1787 31.94 47.2332 27.4884V27.4884ZM23.6111 45.9745C14.9526 45.9745 7.93695 37.7044 7.93695 27.4884C7.93695 17.2725 14.9526 9.01343 23.6111 9.01343C32.2696 9.01343 39.2962 17.2835 39.2962 27.4884C39.2962 37.6934 32.2696 45.9745 23.6111 45.9745Z" fill="#7B003A"/>
<path fill-rule="evenodd" clip-rule="evenodd" d="M185.425 28.3729C188.465 27.7448 191.192 26.0833 193.138 23.673C195.085 21.2627 196.129 18.2535 196.092 15.1607C196.092 6.9348 186.335 6.05029 186.335 6.05029H167.741V47.843H175.068V29.2574H177.566L189.621 47.4007H200L185.425 28.3729ZM175.068 25.7968V8.27261H184.526C184.526 8.27261 189.621 11.1141 189.621 16.3658C189.621 21.6175 187.401 25.7968 184.17 25.7968H175.068Z" fill="#7B003A"/>
</svg>
