<svg width="200" height="67" viewBox="0 0 200 67" fill="none" xmlns="http://www.w3.org/2000/svg">
<rect width="200" height="67" fill="white"/>
<path d="M26.9336 67H32.547V36.8532H26.9336V67ZM20.2 67H25.8122V30.1533H20.2V67ZM13.4678 67H19.0786V36.8532H13.4678V67Z" fill="#FECF00"/>
<path d="M46.0095 33.4993L40.4025 39.0821V20.0843H46.0146L46.0095 33.4993ZM39.2798 40.1966L33.6677 45.7833V13.378H39.2798V40.1966ZM26.9341 35.7348H32.5488V6.69476H26.9341V35.7348ZM20.2006 29.0349H25.8115V0H20.2006V29.0349ZM13.4684 35.7348H19.0779V6.69476H13.4684V35.7348ZM12.3444 45.782L6.73225 40.1966V13.378H12.3444V45.782ZM0 20.0843V33.4981L5.60957 39.0834V20.0843" fill="black"/>
<path d="M69.3328 27C72.2043 27 74.5511 29.3027 74.5511 32.1166V33.215C74.5511 35.6092 72.8524 37.6307 70.5816 38.1825L75.3054 44H68.4841L63.8809 38.3329H61.0934V44H54.272V27.0013C54.1973 27.0013 62.295 27.0003 69.3328 27.0003V27ZM61.0934 34.3659H66.8889C67.7495 34.3659 68.4552 33.6755 68.4552 32.8308V32.5026C68.4552 31.6566 67.7508 30.9675 66.8889 30.9675H61.0934V34.3659ZM103.192 43.999H112.856C115.827 43.999 118.258 41.5773 118.258 38.6169C118.258 35.6539 115.827 33.2336 112.856 33.2336H106.101C105.596 33.2336 105.182 32.8217 105.182 32.3195V31.8802C105.182 31.3781 105.595 30.9675 106.101 30.9675H110.517C111.022 30.9675 111.435 31.3781 111.435 31.8802V32.0986H118.25C118.099 29.2689 115.731 27.0003 112.856 27.0003H103.192C100.223 27.0003 97.791 29.4219 97.791 32.3836C97.791 35.344 100.223 37.7657 103.192 37.7657H109.949C110.454 37.7657 110.868 38.1776 110.868 38.681V39.119C110.868 39.6211 110.453 40.0343 109.949 40.0343H105.532C105.027 40.0343 104.614 39.6211 104.614 39.119V38.9007H97.7989C97.9485 41.7277 100.318 43.999 103.192 43.999ZM134.175 43.999H140.995V27.0003H134.175V36.798L126.215 27.0003H119.395V43.999H126.215V34.2025L134.175 43.999ZM161.962 43.999H168.784V37.7657H179.006V33.2336L168.784 33.2048V31.5337H180.285V27.0003H161.962V43.999ZM75.3094 35.4761C75.3094 41.0438 78.9601 43.999 86.1711 43.999C93.3834 43.999 97.0341 41.0438 97.0341 35.4761C97.0341 29.907 93.3834 27.0003 86.1711 27.0003C78.9601 27.0003 75.3094 29.907 75.3094 35.4761V35.4761ZM86.1711 30.9662C88.388 30.9662 90.1996 32.5026 90.1996 34.3855V36.6137C90.1996 38.4953 88.388 40.0356 86.1711 40.0356C83.9568 40.0356 82.1439 38.4953 82.1439 36.6137V34.3855C82.1439 32.5026 83.9568 30.9662 86.1711 30.9662V30.9662ZM142.324 43.999H161.205V39.4668H149.144V37.7657H159.364V33.2336L149.144 33.2048V31.5337H160.645V27.0003H142.324V43.999ZM187.196 43.999H194.02V31.5337H200V27.0016H181.043V31.5337H187.196" fill="black"/>
</svg>
