<svg width="99" height="67" viewBox="0 0 99 67" fill="none" xmlns="http://www.w3.org/2000/svg">
<path d="M93.0098 58.9828C93.0098 60.4772 91.7824 61.7 90.2823 61.7C88.7821 61.7 87.5547 60.4772 87.5547 58.9828V47.2988H93.0098V41.8644H87.5547V33.7128H82.0996V41.8644V47.2988V58.8469C82.0996 63.3303 85.7818 66.9985 90.2823 66.9985C94.7827 66.9985 98.4649 63.3303 98.4649 58.8469H93.0098V58.9828Z" fill="black"/>
<path d="M43.7767 41.1853C40.2309 41.1853 36.8214 42.5439 34.3666 45.1253C31.9118 47.7066 30.6844 51.1031 30.8208 54.6355C31.0935 61.4285 36.9578 66.9988 43.7767 66.9988C47.1861 66.9988 50.4592 65.6402 52.914 63.1947L49.0954 59.3906C47.7316 60.7492 45.8224 61.5643 43.7767 61.5643C40.64 61.5643 37.9124 59.5264 36.8214 56.8092H56.869V54.092C56.7326 47.0273 50.8683 41.1853 43.7767 41.1853ZM36.685 51.5107C37.0942 50.5597 37.5033 49.7445 38.3216 49.0652C39.8217 47.5707 41.731 46.7556 43.7767 46.7556C46.9134 46.7556 49.6409 48.7935 50.732 51.5107H36.685Z" fill="black"/>
<path d="M38.3213 10.8688H32.8662V35.4595H38.3213V10.8688Z" fill="black"/>
<path d="M16.7745 29.3458L9.54644 10.8688H3.40944H0V16.3032H5.59149L12.9559 35.4595H14.3197H19.0929H20.593L30.1395 10.8688H24.0025L16.7745 29.3458Z" fill="black"/>
<path d="M16.6381 60.342L9.54645 41.865H3.40945H0V47.2994H5.45511L12.9559 66.4557H14.3197H19.0929H20.4567L30.0031 41.865H23.8661L16.6381 60.342Z" fill="black"/>
<path d="M38.3213 0H32.8662V5.43441H38.3213V0Z" fill="black"/>
<path d="M85.5101 10.1901C78.2821 10.1901 72.5542 16.0321 72.5542 23.0968C72.5542 30.1615 78.4184 36.0035 85.5101 36.0035C92.6017 36.0035 98.466 30.1615 98.466 23.0968C98.466 16.0321 92.7381 10.1901 85.5101 10.1901ZM85.5101 30.705C81.4188 30.705 78.0093 27.3085 78.0093 23.2326C78.0093 19.1568 81.4188 15.7603 85.5101 15.7603C89.6014 15.7603 93.0109 19.1568 93.0109 23.2326C93.0109 27.3085 89.7378 30.705 85.5101 30.705Z" fill="black"/>
<path d="M69.9612 51.7837C69.0065 51.5119 68.0519 51.2402 67.5064 50.8326C66.9609 50.5609 66.0062 50.0175 65.7335 49.2023C65.4607 48.2513 66.0062 47.3003 66.8245 46.7568C68.5974 45.8058 72.0069 47.0286 73.6434 48.7947L77.462 44.9906C74.1889 41.73 68.461 39.828 64.2333 42.0017C60.9603 43.7679 59.3237 47.572 60.5511 50.9685C61.233 53.0064 62.8695 54.6367 65.0516 55.7236C66.0062 56.2671 67.2336 56.5388 68.3247 56.9464C70.0976 57.4898 72.0069 58.1691 72.5524 58.9843C72.6887 59.256 72.6887 59.5277 72.6887 59.7994C72.5524 60.3429 72.0069 60.8863 71.325 61.158C70.3703 61.4297 69.4157 61.7015 68.1883 61.5656C66.279 61.5656 64.3697 60.7504 63.1423 59.3918L59.3237 63.1959C61.6422 65.5056 64.9152 66.8642 68.1883 67C68.3247 67 68.461 67 68.7338 67C70.5067 67 72.0069 66.7283 73.507 66.1849C75.6891 65.3697 77.462 63.6035 78.1439 61.5656C78.8258 59.6636 78.553 57.7615 77.462 56.1312C75.5527 53.5498 72.416 52.5988 69.9612 51.7837Z" fill="black"/>
<path d="M56.0511 10.1901C53.1872 10.1901 50.596 11.1411 48.5503 12.6355V10.8694H43.0952V23.0968V35.3242H48.5503V23.0968C48.5503 19.021 51.9598 15.6245 56.0511 15.6245C60.1424 15.6245 63.5519 19.021 63.5519 23.0968V35.3242H69.007V23.0968C69.1434 16.0321 63.2791 10.1901 56.0511 10.1901Z" fill="black"/>
</svg>
